<?xml version="1.0" encoding="UTF-8"?><svg xmlns="http://www.w3.org/2000/svg" xmlns:xlink="http://www.w3.org/1999/xlink" version="1.1" id="Layer_1" x="0px" y="0px" viewBox="0 0 66 66" xml:space="preserve"><style type="text/css">.st0{fill:#D3D6DD;} .st1{fill:#F9AE5B;} .st2{fill:#86D2FF;} .st3{fill:#FEDA7C;} .st4{fill:#9FACBD;} .st5{fill:#1EB975;} .st6{fill:#FFFFFF;} .st7{fill:#F86868;} .st8{fill:#4B7BDF;} .st9{fill:#020202;} .st10{fill:#FFFFFF;stroke:#000000;stroke-width:1.5;stroke-linecap:round;stroke-linejoin:round;stroke-miterlimit:10;} .st11{fill:#86D2FF;stroke:#020202;stroke-width:1.5;stroke-linecap:round;stroke-linejoin:round;stroke-miterlimit:10;} .st12{fill:none;stroke:#020202;stroke-width:1.5;stroke-linecap:round;stroke-linejoin:round;stroke-miterlimit:10;} .st13{fill:#FEDA7C;stroke:#000000;stroke-width:1.5;stroke-linecap:round;stroke-linejoin:round;stroke-miterlimit:10;} .st14{fill:none;stroke:#000000;stroke-width:1.5;stroke-linecap:round;stroke-linejoin:round;stroke-miterlimit:10;} .st15{fill:#D3D6DD;stroke:#000000;stroke-width:1.5;stroke-linecap:round;stroke-linejoin:round;stroke-miterlimit:10;} .st16{fill:none;}</style><path class="st0" d="M2 41.8v3.3c0 2.3 1.8 4.1 4.1 4.1h53.8c2.3 0 4.1-1.8 4.1-4.1v-3.3H2z" fill="#D3D6DD"/><circle class="st4" cx="33" cy="45.5" r="2.1" fill="#9FACBD"/><path class="st0" fill="#D3D6DD" d="M47.6 14.9h5.3v21.5h-5.3z"/><path class="st1" fill="#F9AE5B" d="M36.1 21.5h5.3v14.8h-5.3z"/><path class="st0" fill="#D3D6DD" d="M24.6 11.4h5.3v24.9h-5.3z"/><path class="st5" fill="#1EB975" d="M13.1 17.6h5.3v18.8h-5.3z"/><path d="M59.9 2.4H6.1c-2.7 0-4.8 2.2-4.8 4.8v37.9c0 2.7 2.2 4.8 4.8 4.8H24l-2 6.5h-1.2c-2.7 0-4.9 2.2-4.9 4.9v1.5c0 .4.3.8.8.8h32.7c.4 0 .8-.3.8-.8v-1.5c0-2.7-2.2-4.9-4.9-4.9H44L42 50h17.9c2.7 0 4.8-2.2 4.8-4.8V7.3c.1-2.7-2.1-4.9-4.8-4.9zM6.1 3.9h53.8c1.8 0 3.3 1.5 3.3 3.3V41H2.8V7.3c0-1.9 1.4-3.4 3.3-3.4zm57.2 41.2c0 1.8-1.5 3.3-3.3 3.3H6.1c-1.8 0-3.3-1.5-3.3-3.3v-2.5h60.5v2.5zM48.6 61.3v.8H17.4v-.8c0-1.9 1.5-3.4 3.4-3.4h24.5c1.8 0 3.3 1.5 3.3 3.4zm-6.1-4.9h-19l2-6.5h14.9l2.1 6.5z"/><path d="M9.2 37.1h47.7c.4 0 .8-.3.8-.8s-.3-.8-.8-.8h-3.2V14.9c0-.4-.3-.8-.8-.8h-5.3c-.4 0-.8.3-.8.8v20.7h-4.7V21.5c0-.4-.3-.8-.8-.8H36c-.4 0-.8.3-.8.8v14.1h-4.7V11.4c0-.4-.3-.8-.8-.8h-5.3c-.4 0-.8.3-.8.8v24.2h-4.7v-18c0-.4-.3-.8-.8-.8h-5.3c-.4 0-.8.3-.8.8v18H9.2c-.4 0-.8.3-.8.8s.3.7.8.7zm39.1-21.5h3.8v20h-3.8v-20zm-11.5 6.6h3.8v13.3h-3.8V22.2zM25.3 12.1h3.8v23.5h-3.8V12.1zm-11.5 6.2h3.8v17.3h-3.8V18.3z"/><metadata><rdf:RDF xmlns:rdf="http://www.w3.org/1999/02/22-rdf-syntax-ns#" xmlns:rdfs="http://www.w3.org/2000/01/rdf-schema#" xmlns:dc="http://purl.org/dc/elements/1.1/"><rdf:Description about="https://iconscout.com/legal#licenses" dc:publisher="Iconscout" dc:date="2018-06-28" dc:format="image/svg+xml" dc:language="en"><dc:creator><rdf:Bag><rdf:li>Vectors Market</rdf:li></rdf:Bag></dc:creator></rdf:Description></rdf:RDF></metadata></svg>